<svg version="1.1" preserveAspectRatio="none" xmlns="http://www.w3.org/2000/svg" width="500" height="500" viewBox="0 0 500 500"><rect width="100%" height="100%" fill="#FFFFFF" fill-opacity="1"/><svg viewBox="22.0337 144.567 440.1893 94" width="333" height="71.11031549381141" x="83.5px" y="214.4448px" xmlns="http://www.w3.org/2000/svg" xmlns:xlink="http://www.w3.org/1999/xlink" preserveAspectRatio="none"><defs></defs><style>.companyName {fill:#4D4D4D;fill-opacity:1;}.icon1 {fill:#FF834F;fill-opacity:1;}.icon2 {fill:#FF4949;fill-opacity:1;}.icon3 {fill:#FFAE78;fill-opacity:1;}.icon3-str {stroke:#FFAE78;stroke-opacity:1;}.shapeStroke-str {stroke:#313131;stroke-opacity:1;}</style><g opacity="1" transform="rotate(0 22.0337 156.567)">
<svg width="64.1029" height="70" x="22.0337" y="156.567" version="1.1" preserveAspectRatio="none" viewBox="11.326606750488281 6 76.92339324951172 84">
  <g transform="matrix(1 0 0 1 0 0)" class="icon1"><path d="M80,69.699v-3.782c0-6.754-5.016-11.848-11.667-11.848C61.417,54.069,56,59.164,56,65.667v13.5  C56,83.254,52.879,86,48.233,86C43.771,86,40,82.306,40,77.934V65.01c1.032-0.517,1.831-1.411,2.223-2.508  c1.283-0.072,2.589-0.173,3.944-0.309c4.771-0.479,9.426-6.419,11.01-11.665c3.138-10.734,5.543-20.355,7.359-29.449  c0.462-2.562-0.241-5.255-1.979-7.581c-1.66-2.223-4.15-3.927-6.979-4.87C54.865,7.081,53.311,6,51.5,6C49.019,6,47,8.019,47,10.5  s2.019,4.5,4.5,4.5c1.634,0,3.054-0.884,3.842-2.191c1.627,0.714,3.033,1.772,4.011,3.082c1.067,1.428,1.51,3.019,1.254,4.44  c-1.787,8.942-4.165,18.453-7.265,29.058c-1.437,4.76-5.184,8.584-7.575,8.824c-1.382,0.138-2.712,0.241-4.018,0.31  C40.944,57.306,39.565,56.5,38,56.5s-2.944,0.806-3.75,2.022c-1.306-0.069-2.636-0.172-4.018-0.311  c-2.391-0.241-6.138-4.066-7.569-8.807c-3.106-10.63-5.485-20.141-7.265-29.037c-0.263-1.458,0.18-3.048,1.247-4.476  c0.979-1.31,2.385-2.368,4.013-3.083C21.446,14.116,22.866,15,24.5,15c2.481,0,4.5-2.019,4.5-4.5S26.981,6,24.5,6  c-1.811,0-3.365,1.081-4.079,2.627c-2.83,0.943-5.32,2.648-6.981,4.871c-1.737,2.326-2.44,5.018-1.972,7.617  c1.81,9.049,4.215,18.669,7.36,29.429c1.578,5.228,6.233,11.167,11.002,11.647c1.355,0.137,2.662,0.238,3.945,0.31  c0.392,1.097,1.191,1.991,2.223,2.508v12.924C36,84.587,41.488,90,48.233,90C55.051,90,60,85.444,60,79.167v-13.5  c0-4.26,3.66-7.598,8.333-7.598c5.033,0,7.667,3.948,7.667,7.848v3.782c-4.697,0.933-8.25,5.083-8.25,10.051  C67.75,85.402,72.348,90,78,90s10.25-4.598,10.25-10.25C88.25,74.783,84.697,70.632,80,69.699z M78,86  c-3.446,0-6.25-2.804-6.25-6.25S74.554,73.5,78,73.5s6.25,2.804,6.25,6.25S81.446,86,78,86z"></path></g>
</svg>
</g><g opacity="1" transform="rotate(0 120.1366 171.567)">
<svg width="342.0864" height="40" x="120.1366" y="171.567" version="1.1" preserveAspectRatio="none" viewBox="3.32 -29.68 322.92 37.760000000000005">
  <g transform="matrix(1 0 0 1 0 0)" class="companyName"><path id="id-D6z1nYkh13" d="M34.88 0L28.80 0L28.76-16.80L20.52-2.96L17.60-2.96L9.40-16.44L9.40 0L3.32 0L3.32-28L8.68-28L19.16-10.60L29.48-28L34.80-28L34.88 0Z M62.16-10.68Q62.16-10.56 62.04-9L62.04-9L45.76-9Q46.20-7 47.84-5.84Q49.48-4.68 51.92-4.68L51.92-4.68Q53.60-4.68 54.90-5.18Q56.20-5.68 57.32-6.76L57.32-6.76L60.64-3.16Q57.60 0.32 51.76 0.32L51.76 0.32Q48.12 0.32 45.32-1.10Q42.52-2.52 41-5.04Q39.48-7.56 39.48-10.76L39.48-10.76Q39.48-13.92 40.98-16.46Q42.48-19 45.10-20.42Q47.72-21.84 50.96-21.84L50.96-21.84Q54.12-21.84 56.68-20.48Q59.24-19.12 60.70-16.58Q62.16-14.04 62.16-10.68L62.16-10.68ZM51-17.12Q48.88-17.12 47.44-15.92Q46-14.72 45.68-12.64L45.68-12.64L56.28-12.64Q55.96-14.68 54.52-15.90Q53.08-17.12 51-17.12L51-17.12Z M82-29.68L88.24-29.68L88.24 0L82.28 0L82.28-2.48Q79.96 0.32 75.56 0.32L75.56 0.32Q72.52 0.32 70.06-1.04Q67.60-2.40 66.20-4.92Q64.80-7.44 64.80-10.76L64.80-10.76Q64.80-14.08 66.20-16.60Q67.60-19.12 70.06-20.48Q72.52-21.84 75.56-21.84L75.56-21.84Q79.68-21.84 82-19.24L82-19.24L82-29.68ZM76.64-4.80Q79-4.80 80.56-6.42Q82.12-8.04 82.12-10.76L82.12-10.76Q82.12-13.48 80.56-15.10Q79-16.72 76.64-16.72L76.64-16.72Q74.24-16.72 72.68-15.10Q71.12-13.48 71.12-10.76L71.12-10.76Q71.12-8.04 72.68-6.42Q74.24-4.80 76.64-4.80L76.64-4.80Z M137.32 0L131.24 0L131.20-16.80L122.96-2.96L120.04-2.96L111.84-16.44L111.84 0L105.76 0L105.76-28L111.12-28L121.60-10.60L131.92-28L137.24-28L137.32 0Z M152.20-21.84Q157.20-21.84 159.88-19.46Q162.56-17.08 162.56-12.28L162.56-12.28L162.56 0L156.72 0L156.72-2.68Q154.96 0.32 150.16 0.32L150.16 0.32Q147.68 0.32 145.86-0.52Q144.04-1.36 143.08-2.84Q142.12-4.32 142.12-6.20L142.12-6.20Q142.12-9.20 144.38-10.92Q146.64-12.64 151.36-12.64L151.36-12.64L156.32-12.64Q156.32-14.68 155.08-15.78Q153.84-16.88 151.36-16.88L151.36-16.88Q149.64-16.88 147.98-16.34Q146.32-15.80 145.16-14.88L145.16-14.88L142.92-19.24Q144.68-20.48 147.14-21.16Q149.60-21.84 152.20-21.84L152.20-21.84ZM151.72-3.88Q153.32-3.88 154.56-4.62Q155.80-5.36 156.32-6.80L156.32-6.80L156.32-9L152.04-9Q148.20-9 148.20-6.48L148.20-6.48Q148.20-5.28 149.14-4.58Q150.08-3.88 151.72-3.88L151.72-3.88Z M184.12-29.68L190.36-29.68L190.36 0L184.40 0L184.40-2.48Q182.08 0.32 177.68 0.32L177.68 0.32Q174.64 0.32 172.18-1.04Q169.72-2.40 168.32-4.92Q166.92-7.44 166.92-10.76L166.92-10.76Q166.92-14.08 168.32-16.60Q169.72-19.12 172.18-20.48Q174.64-21.84 177.68-21.84L177.68-21.84Q181.80-21.84 184.12-19.24L184.12-19.24L184.12-29.68ZM178.76-4.80Q181.12-4.80 182.68-6.42Q184.24-8.04 184.24-10.76L184.24-10.76Q184.24-13.48 182.68-15.10Q181.12-16.72 178.76-16.72L178.76-16.72Q176.36-16.72 174.80-15.10Q173.24-13.48 173.24-10.76L173.24-10.76Q173.24-8.04 174.80-6.42Q176.36-4.80 178.76-4.80L178.76-4.80Z M217.20-10.68Q217.20-10.56 217.08-9L217.08-9L200.80-9Q201.24-7 202.88-5.84Q204.52-4.68 206.96-4.68L206.96-4.68Q208.64-4.68 209.94-5.18Q211.24-5.68 212.36-6.76L212.36-6.76L215.68-3.16Q212.64 0.32 206.80 0.32L206.80 0.32Q203.16 0.32 200.36-1.10Q197.56-2.52 196.04-5.04Q194.52-7.56 194.52-10.76L194.52-10.76Q194.52-13.92 196.02-16.46Q197.52-19 200.14-20.42Q202.76-21.84 206-21.84L206-21.84Q209.16-21.84 211.72-20.48Q214.28-19.12 215.74-16.58Q217.20-14.04 217.20-10.68L217.20-10.68ZM206.04-17.12Q203.92-17.12 202.48-15.92Q201.04-14.72 200.72-12.64L200.72-12.64L211.32-12.64Q211-14.68 209.56-15.90Q208.12-17.12 206.04-17.12L206.04-17.12Z M239.56-5.20L254.80-5.20L254.80 0L233.12 0L233.12-28L254.28-28L254.28-22.80L239.56-22.80L239.56-16.72L252.56-16.72L252.56-11.68L239.56-11.68L239.56-5.20Z M268.04-21.84Q273.04-21.84 275.72-19.46Q278.40-17.08 278.40-12.28L278.40-12.28L278.40 0L272.56 0L272.56-2.68Q270.80 0.32 266.00 0.32L266.00 0.32Q263.52 0.32 261.70-0.52Q259.88-1.36 258.92-2.84Q257.96-4.32 257.96-6.20L257.96-6.20Q257.96-9.20 260.22-10.92Q262.48-12.64 267.20-12.64L267.20-12.64L272.16-12.64Q272.16-14.68 270.92-15.78Q269.68-16.88 267.20-16.88L267.20-16.88Q265.48-16.88 263.82-16.34Q262.16-15.80 261.00-14.88L261.00-14.88L258.76-19.24Q260.52-20.48 262.98-21.16Q265.44-21.84 268.04-21.84L268.04-21.84ZM267.56-3.88Q269.16-3.88 270.40-4.62Q271.64-5.36 272.16-6.80L272.16-6.80L272.16-9L267.88-9Q264.04-9 264.04-6.48L264.04-6.48Q264.04-5.28 264.98-4.58Q265.92-3.88 267.56-3.88L267.56-3.88Z M291.28 0.32Q288.60 0.32 286.04-0.34Q283.48-1 281.96-2L281.96-2L284.04-6.48Q285.48-5.56 287.52-4.98Q289.56-4.40 291.52-4.40L291.52-4.40Q295.48-4.40 295.48-6.36L295.48-6.36Q295.48-7.28 294.40-7.68Q293.32-8.08 291.08-8.36L291.08-8.36Q288.44-8.76 286.72-9.28Q285.00-9.80 283.74-11.12Q282.48-12.44 282.48-14.88L282.48-14.88Q282.48-16.92 283.66-18.50Q284.84-20.08 287.10-20.96Q289.36-21.84 292.44-21.84L292.44-21.84Q294.72-21.84 296.98-21.34Q299.24-20.84 300.72-19.96L300.72-19.96L298.64-15.52Q295.80-17.12 292.44-17.12L292.44-17.12Q290.44-17.12 289.44-16.56Q288.44-16 288.44-15.12L288.44-15.12Q288.44-14.12 289.52-13.72Q290.60-13.32 292.96-12.96L292.96-12.96Q295.60-12.52 297.28-12.02Q298.96-11.52 300.20-10.20Q301.44-8.88 301.44-6.52L301.44-6.52Q301.44-4.52 300.24-2.96Q299.04-1.40 296.74-0.54Q294.44 0.32 291.28 0.32L291.28 0.32Z M320.24-21.52L326.24-21.52L316.52 1.32Q315.04 5.04 312.86 6.56Q310.68 8.08 307.60 8.08L307.60 8.08Q305.92 8.08 304.28 7.56Q302.64 7.04 301.60 6.12L301.60 6.12L303.88 1.68Q304.60 2.32 305.54 2.68Q306.48 3.04 307.40 3.04L307.40 3.04Q308.68 3.04 309.48 2.42Q310.28 1.80 310.92 0.36L310.92 0.36L311 0.16L301.68-21.52L308.12-21.52L314.16-6.92L320.24-21.52Z"/></g>
</svg>
</g><g opacity="1" transform="rotate(0 100.1366 144.567)">
<svg width="4" height="94" x="100.1366" y="144.567" version="1.1" preserveAspectRatio="none" viewBox="0 0 4 94">
  <defs><rect x="0" y="0" width="4" height="94" rx="0px" ry="0px" id="id-tBXipXk0b1702166188262"></rect></defs><use class="companyName shapeStroke-str" style="stroke-width:0;" xlink:href="#id-tBXipXk0b1702166188262"></use>
</svg>
</g></svg></svg>