<?xml version="1.0" encoding="UTF-8"?>
<svg xmlns="http://www.w3.org/2000/svg" xmlns:xlink="http://www.w3.org/1999/xlink" width="170px" height="41px" viewBox="0 0 170 41" version="1.1">
<defs>
<clipPath id="clip1">
  <path d="M 28.390625 18.328125 L 44.878906 18.328125 L 44.878906 22.671875 L 28.390625 22.671875 Z M 28.390625 18.328125 "/>
</clipPath>
<clipPath id="clip2">
  <path d="M 53.621094 19.257812 L 141.609375 19.257812 L 141.609375 21.738281 L 53.621094 21.738281 Z M 53.621094 19.257812 "/>
</clipPath>
<clipPath id="clip3">
  <path d="M 48.480469 17.585938 L 49.507812 17.585938 L 49.507812 23.417969 L 48.480469 23.417969 Z M 48.480469 17.585938 "/>
</clipPath>
</defs>
<g id="surface1">
<rect x="0" y="0" width="170" height="41" style="fill:rgb(100%,100%,100%);fill-opacity:1;stroke:none;"/>
<g clip-path="url(#clip1)" clip-rule="nonzero">
<path style=" stroke:none;fill-rule:nonzero;fill:rgb(100%,51.372549%,30.980392%);fill-opacity:1;" d="M 43.109375 21.621094 L 43.109375 21.425781 C 43.109375 21.078125 42.035156 20.8125 40.609375 20.8125 C 39.125 20.8125 37.964844 21.078125 37.964844 21.414062 L 37.964844 22.109375 C 37.964844 22.324219 37.296875 22.464844 36.300781 22.464844 C 35.34375 22.464844 34.535156 22.273438 34.535156 22.046875 L 34.535156 21.378906 C 34.757812 21.351562 34.929688 21.304688 35.011719 21.25 C 35.289062 21.246094 35.566406 21.242188 35.859375 21.234375 C 36.878906 21.207031 37.878906 20.902344 38.21875 20.628906 C 38.890625 20.074219 39.40625 19.578125 39.792969 19.109375 C 39.894531 18.976562 39.742188 18.835938 39.371094 18.714844 C 39.015625 18.601562 38.480469 18.511719 37.875 18.464844 C 37.722656 18.382812 37.390625 18.328125 37 18.328125 C 36.46875 18.328125 36.035156 18.433594 36.035156 18.5625 C 36.035156 18.691406 36.46875 18.792969 37 18.792969 C 37.351562 18.792969 37.65625 18.75 37.824219 18.679688 C 38.171875 18.71875 38.472656 18.773438 38.683594 18.839844 C 38.914062 18.914062 39.007812 18.996094 38.953125 19.070312 C 38.570312 19.53125 38.058594 20.023438 37.394531 20.570312 C 37.085938 20.816406 36.285156 21.015625 35.773438 21.027344 C 35.476562 21.035156 35.191406 21.039062 34.910156 21.042969 C 34.738281 20.980469 34.441406 20.9375 34.105469 20.9375 C 33.773438 20.9375 33.476562 20.980469 33.304688 21.042969 C 33.023438 21.039062 32.738281 21.035156 32.441406 21.027344 C 31.929688 21.015625 31.125 20.816406 30.820312 20.574219 C 30.152344 20.023438 29.644531 19.53125 29.261719 19.070312 C 29.207031 18.996094 29.300781 18.914062 29.53125 18.839844 C 29.738281 18.773438 30.042969 18.71875 30.390625 18.679688 C 30.558594 18.75 30.863281 18.792969 31.214844 18.792969 C 31.746094 18.792969 32.179688 18.691406 32.179688 18.5625 C 32.179688 18.433594 31.746094 18.328125 31.214844 18.328125 C 30.824219 18.328125 30.492188 18.382812 30.339844 18.464844 C 29.734375 18.511719 29.199219 18.601562 28.84375 18.714844 C 28.46875 18.835938 28.320312 18.976562 28.421875 19.109375 C 28.808594 19.578125 29.324219 20.074219 29.996094 20.632812 C 30.335938 20.902344 31.332031 21.207031 32.355469 21.234375 C 32.644531 21.242188 32.925781 21.246094 33.203125 21.25 C 33.285156 21.304688 33.457031 21.351562 33.679688 21.378906 L 33.679688 22.046875 C 33.679688 22.390625 34.855469 22.671875 36.300781 22.671875 C 37.761719 22.671875 38.824219 22.4375 38.824219 22.109375 L 38.824219 21.414062 C 38.824219 21.191406 39.605469 21.019531 40.609375 21.019531 C 41.6875 21.019531 42.253906 21.222656 42.253906 21.425781 L 42.253906 21.621094 C 41.246094 21.671875 40.484375 21.882812 40.484375 22.140625 C 40.484375 22.433594 41.46875 22.671875 42.679688 22.671875 C 43.890625 22.671875 44.878906 22.433594 44.878906 22.140625 C 44.878906 21.882812 44.117188 21.671875 43.109375 21.621094 Z M 42.679688 22.464844 C 41.941406 22.464844 41.339844 22.320312 41.339844 22.140625 C 41.339844 21.964844 41.941406 21.816406 42.679688 21.816406 C 43.417969 21.816406 44.019531 21.964844 44.019531 22.140625 C 44.019531 22.320312 43.417969 22.464844 42.679688 22.464844 Z M 42.679688 22.464844 "/>
</g>
<g clip-path="url(#clip2)" clip-rule="nonzero">
<path style=" stroke:none;fill-rule:nonzero;fill:rgb(30.196078%,30.196078%,30.196078%);fill-opacity:1;" d="M 62.222656 21.210938 L 60.566406 21.210938 L 60.554688 20.105469 L 58.308594 21.015625 L 57.515625 21.015625 L 55.28125 20.128906 L 55.28125 21.210938 L 53.621094 21.210938 L 53.621094 19.371094 L 55.082031 19.371094 L 57.9375 20.511719 L 60.75 19.371094 L 62.199219 19.371094 Z M 69.65625 20.507812 C 69.65625 20.511719 69.644531 20.550781 69.621094 20.617188 L 65.1875 20.617188 C 65.265625 20.707031 65.457031 20.773438 65.753906 20.824219 C 66.050781 20.875 66.421875 20.902344 66.863281 20.902344 C 67.171875 20.902344 67.441406 20.890625 67.675781 20.871094 C 67.914062 20.847656 68.132812 20.8125 68.335938 20.765625 L 69.242188 21.003906 C 68.6875 21.15625 67.882812 21.230469 66.820312 21.230469 C 66.160156 21.230469 65.574219 21.199219 65.066406 21.136719 C 64.558594 21.074219 64.164062 20.988281 63.890625 20.878906 C 63.613281 20.769531 63.476562 20.644531 63.476562 20.503906 C 63.476562 20.363281 63.613281 20.238281 63.882812 20.128906 C 64.15625 20.015625 64.53125 19.929688 65.007812 19.867188 C 65.484375 19.804688 66.015625 19.773438 66.601562 19.773438 C 67.175781 19.773438 67.695312 19.804688 68.160156 19.863281 C 68.628906 19.921875 68.992188 20.007812 69.257812 20.121094 C 69.523438 20.230469 69.65625 20.359375 69.65625 20.507812 Z M 66.613281 20.085938 C 66.230469 20.085938 65.90625 20.109375 65.644531 20.164062 C 65.382812 20.214844 65.222656 20.289062 65.164062 20.378906 L 68.054688 20.378906 C 67.996094 20.289062 67.835938 20.21875 67.574219 20.164062 C 67.3125 20.113281 66.992188 20.085938 66.613281 20.085938 Z M 75.0625 19.257812 L 76.761719 19.257812 L 76.761719 21.210938 L 75.136719 21.210938 L 75.136719 21.046875 C 74.714844 21.167969 74.105469 21.230469 73.304688 21.230469 C 72.753906 21.230469 72.253906 21.199219 71.808594 21.140625 C 71.359375 21.082031 71.011719 20.996094 70.757812 20.886719 C 70.5 20.777344 70.375 20.648438 70.375 20.503906 C 70.375 20.355469 70.5 20.230469 70.757812 20.117188 C 71.011719 20.007812 71.359375 19.921875 71.808594 19.863281 C 72.253906 19.804688 72.753906 19.773438 73.304688 19.773438 C 74.054688 19.773438 74.640625 19.832031 75.0625 19.945312 Z M 73.601562 20.894531 C 74.027344 20.894531 74.386719 20.859375 74.667969 20.789062 C 74.953125 20.71875 75.09375 20.621094 75.09375 20.503906 C 75.09375 20.382812 74.953125 20.289062 74.667969 20.21875 C 74.386719 20.144531 74.027344 20.109375 73.601562 20.109375 C 73.164062 20.109375 72.804688 20.144531 72.523438 20.21875 C 72.238281 20.289062 72.097656 20.382812 72.097656 20.503906 C 72.097656 20.621094 72.238281 20.71875 72.523438 20.789062 C 72.804688 20.859375 73.164062 20.894531 73.601562 20.894531 Z M 90.132812 21.210938 L 88.476562 21.210938 L 88.464844 20.105469 L 86.222656 21.015625 L 85.425781 21.015625 L 83.191406 20.128906 L 83.191406 21.210938 L 81.535156 21.210938 L 81.535156 19.371094 L 82.996094 19.371094 L 85.851562 20.511719 L 88.664062 19.371094 L 90.113281 19.371094 Z M 94.1875 19.773438 C 95.097656 19.773438 95.792969 19.828125 96.28125 19.929688 C 96.769531 20.035156 97.011719 20.191406 97.011719 20.402344 L 97.011719 21.210938 L 95.421875 21.210938 L 95.421875 21.035156 C 95.101562 21.164062 94.503906 21.230469 93.632812 21.230469 C 93.183594 21.230469 92.792969 21.210938 92.460938 21.175781 C 92.128906 21.140625 91.878906 21.089844 91.703125 21.023438 C 91.53125 20.957031 91.441406 20.882812 91.441406 20.800781 C 91.441406 20.671875 91.648438 20.566406 92.058594 20.492188 C 92.46875 20.417969 93.101562 20.378906 93.960938 20.378906 L 95.3125 20.378906 C 95.3125 20.289062 95.199219 20.222656 94.972656 20.171875 C 94.75 20.125 94.410156 20.101562 93.960938 20.101562 C 93.648438 20.101562 93.339844 20.113281 93.039062 20.136719 C 92.738281 20.160156 92.480469 20.191406 92.269531 20.230469 L 91.660156 19.945312 C 91.980469 19.890625 92.363281 19.847656 92.808594 19.820312 C 93.257812 19.789062 93.714844 19.773438 94.1875 19.773438 Z M 94.058594 20.953125 C 94.347656 20.953125 94.605469 20.9375 94.832031 20.90625 C 95.058594 20.875 95.21875 20.824219 95.3125 20.761719 L 95.3125 20.617188 L 94.144531 20.617188 C 93.449219 20.617188 93.097656 20.671875 93.097656 20.785156 C 93.097656 20.835938 93.183594 20.878906 93.355469 20.910156 C 93.527344 20.9375 93.761719 20.953125 94.058594 20.953125 Z M 102.886719 19.257812 L 104.585938 19.257812 L 104.585938 21.210938 L 102.960938 21.210938 L 102.960938 21.046875 C 102.539062 21.167969 101.929688 21.230469 101.132812 21.230469 C 100.578125 21.230469 100.078125 21.199219 99.632812 21.140625 C 99.1875 21.082031 98.835938 20.996094 98.582031 20.886719 C 98.328125 20.777344 98.199219 20.648438 98.199219 20.503906 C 98.199219 20.355469 98.328125 20.230469 98.582031 20.117188 C 98.835938 20.007812 99.1875 19.921875 99.632812 19.863281 C 100.078125 19.804688 100.578125 19.773438 101.132812 19.773438 C 101.878906 19.773438 102.464844 19.832031 102.886719 19.945312 Z M 101.425781 20.894531 C 101.855469 20.894531 102.210938 20.859375 102.492188 20.789062 C 102.777344 20.71875 102.917969 20.621094 102.917969 20.503906 C 102.917969 20.382812 102.777344 20.289062 102.492188 20.21875 C 102.210938 20.144531 101.855469 20.109375 101.425781 20.109375 C 100.988281 20.109375 100.628906 20.144531 100.347656 20.21875 C 100.0625 20.289062 99.921875 20.382812 99.921875 20.503906 C 99.921875 20.621094 100.0625 20.71875 100.347656 20.789062 C 100.628906 20.859375 100.988281 20.894531 101.425781 20.894531 Z M 111.898438 20.507812 C 111.898438 20.511719 111.886719 20.550781 111.867188 20.617188 L 107.429688 20.617188 C 107.511719 20.707031 107.699219 20.773438 107.996094 20.824219 C 108.296875 20.875 108.667969 20.902344 109.109375 20.902344 C 109.414062 20.902344 109.683594 20.890625 109.921875 20.871094 C 110.15625 20.847656 110.378906 20.8125 110.582031 20.765625 L 111.484375 21.003906 C 110.933594 21.15625 110.125 21.230469 109.066406 21.230469 C 108.40625 21.230469 107.820312 21.199219 107.3125 21.136719 C 106.800781 21.074219 106.410156 20.988281 106.132812 20.878906 C 105.859375 20.769531 105.71875 20.644531 105.71875 20.503906 C 105.71875 20.363281 105.855469 20.238281 106.128906 20.128906 C 106.402344 20.015625 106.773438 19.929688 107.25 19.867188 C 107.726562 19.804688 108.257812 19.773438 108.847656 19.773438 C 109.421875 19.773438 109.941406 19.804688 110.40625 19.863281 C 110.871094 19.921875 111.238281 20.007812 111.5 20.121094 C 111.765625 20.230469 111.898438 20.359375 111.898438 20.507812 Z M 108.859375 20.085938 C 108.472656 20.085938 108.148438 20.109375 107.886719 20.164062 C 107.628906 20.214844 107.46875 20.289062 107.410156 20.378906 L 110.296875 20.378906 C 110.238281 20.289062 110.078125 20.21875 109.816406 20.164062 C 109.554688 20.113281 109.238281 20.085938 108.859375 20.085938 Z M 117.992188 20.867188 L 122.144531 20.867188 L 122.144531 21.210938 L 116.238281 21.210938 L 116.238281 19.371094 L 122.003906 19.371094 L 122.003906 19.710938 L 117.992188 19.710938 L 117.992188 20.109375 L 121.535156 20.109375 L 121.535156 20.441406 L 117.992188 20.441406 Z M 125.753906 19.773438 C 126.660156 19.773438 127.359375 19.828125 127.84375 19.929688 C 128.332031 20.035156 128.574219 20.191406 128.574219 20.402344 L 128.574219 21.210938 L 126.984375 21.210938 L 126.984375 21.035156 C 126.664062 21.164062 126.066406 21.230469 125.195312 21.230469 C 124.746094 21.230469 124.355469 21.210938 124.023438 21.175781 C 123.695312 21.140625 123.441406 21.089844 123.265625 21.023438 C 123.09375 20.957031 123.003906 20.882812 123.003906 20.800781 C 123.003906 20.671875 123.210938 20.566406 123.621094 20.492188 C 124.03125 20.417969 124.664062 20.378906 125.523438 20.378906 L 126.875 20.378906 C 126.875 20.289062 126.761719 20.222656 126.535156 20.171875 C 126.3125 20.125 125.972656 20.101562 125.523438 20.101562 C 125.210938 20.101562 124.902344 20.113281 124.601562 20.136719 C 124.300781 20.160156 124.042969 20.191406 123.832031 20.230469 L 123.222656 19.945312 C 123.542969 19.890625 123.925781 19.847656 124.375 19.820312 C 124.820312 19.789062 125.28125 19.773438 125.753906 19.773438 Z M 125.621094 20.953125 C 125.910156 20.953125 126.167969 20.9375 126.394531 20.90625 C 126.621094 20.875 126.78125 20.824219 126.875 20.761719 L 126.875 20.617188 L 125.707031 20.617188 C 125.011719 20.617188 124.664062 20.671875 124.664062 20.785156 C 124.664062 20.835938 124.746094 20.878906 124.917969 20.910156 C 125.089844 20.9375 125.324219 20.953125 125.621094 20.953125 Z M 132.085938 21.230469 C 131.597656 21.230469 131.121094 21.214844 130.65625 21.1875 C 130.191406 21.160156 129.820312 21.121094 129.542969 21.078125 L 130.113281 20.785156 C 130.375 20.824219 130.6875 20.855469 131.058594 20.882812 C 131.429688 20.90625 131.792969 20.921875 132.148438 20.921875 C 132.867188 20.921875 133.230469 20.878906 133.230469 20.792969 C 133.230469 20.75 133.128906 20.722656 132.933594 20.703125 C 132.738281 20.6875 132.4375 20.671875 132.03125 20.660156 C 131.550781 20.644531 131.152344 20.621094 130.84375 20.601562 C 130.53125 20.578125 130.257812 20.535156 130.03125 20.480469 C 129.800781 20.421875 129.6875 20.339844 129.6875 20.230469 C 129.6875 20.140625 129.792969 20.0625 130.007812 19.992188 C 130.222656 19.925781 130.535156 19.871094 130.945312 19.832031 C 131.355469 19.792969 131.839844 19.773438 132.398438 19.773438 C 132.816406 19.773438 133.226562 19.785156 133.636719 19.808594 C 134.046875 19.828125 134.386719 19.859375 134.65625 19.898438 L 134.089844 20.191406 C 133.574219 20.121094 133.011719 20.085938 132.398438 20.085938 C 132.035156 20.085938 131.765625 20.097656 131.582031 20.121094 C 131.402344 20.144531 131.308594 20.175781 131.308594 20.214844 C 131.308594 20.261719 131.410156 20.289062 131.605469 20.308594 C 131.800781 20.324219 132.113281 20.34375 132.542969 20.359375 C 133.023438 20.378906 133.414062 20.398438 133.71875 20.417969 C 134.023438 20.441406 134.289062 20.480469 134.515625 20.539062 C 134.738281 20.597656 134.851562 20.679688 134.851562 20.78125 C 134.851562 20.867188 134.742188 20.945312 134.527344 21.015625 C 134.308594 21.082031 133.988281 21.136719 133.570312 21.175781 C 133.152344 21.210938 132.660156 21.230469 132.085938 21.230469 Z M 139.976562 19.796875 L 141.609375 19.796875 L 138.960938 21.296875 C 138.691406 21.460938 138.359375 21.574219 137.964844 21.640625 C 137.566406 21.707031 137.089844 21.742188 136.53125 21.742188 C 136.226562 21.742188 135.925781 21.730469 135.625 21.707031 C 135.328125 21.683594 135.085938 21.652344 134.894531 21.613281 L 135.515625 21.320312 C 135.648438 21.347656 135.800781 21.371094 135.96875 21.386719 C 136.140625 21.402344 136.308594 21.410156 136.476562 21.410156 C 136.710938 21.410156 136.898438 21.394531 137.042969 21.367188 C 137.1875 21.339844 137.320312 21.296875 137.4375 21.234375 L 137.457031 21.21875 L 134.917969 19.796875 L 136.671875 19.796875 L 138.320312 20.753906 Z M 139.976562 19.796875 "/>
</g>
<g clip-path="url(#clip3)" clip-rule="nonzero">
<path style=" stroke:none;fill-rule:nonzero;fill:rgb(30.196078%,30.196078%,30.196078%);fill-opacity:1;" d="M 48.480469 17.585938 L 49.507812 17.585938 L 49.507812 23.414062 L 48.480469 23.414062 Z M 48.480469 17.585938 "/>
</g>
</g>
</svg>
